<?xml version="1.0" encoding="utf-8"?>
<!-- Generator: Adobe Illustrator 23.0.3, SVG Export Plug-In . SVG Version: 6.00 Build 0)  -->
<svg version="1.1" id="Layer_1" xmlns="http://www.w3.org/2000/svg" xmlns:xlink="http://www.w3.org/1999/xlink" x="0px" y="0px"
	 viewBox="0 0 699.68 205.41" style="enable-background:new 0 0 699.68 205.41;" xml:space="preserve">
<style type="text/css">
	.st0{fill:#FFFFFF;stroke:#FFFFFF;stroke-width:3;stroke-miterlimit:10;}
	.st1{fill:#FFFFFF;}
</style>
<path class="st0" d="M11.09,5.86C18,11.82,96.03,48.71,81.57,109.03c-4.72,19.68-45.38,68.08-51.22,78.21
	C18.3,208.13,56.67,108.4,11.09,5.86"/>
<path class="st0" d="M13.85,32.25c12.33,5.96,153.95,45.26,122.5,99.94c-10.26,17.84-86.48,60.74-100.91,68.71
	S139.55,133.22,13.85,32.25z"/>
<g>
	<path class="st1" d="M174,110.52v17.52h36.65c0.83,0,1.47-0.22,1.92-0.66c0.45-0.44,0.81-1.22,1.09-2.34h1.34v16.53h-1.34
		c-0.28-1.12-0.64-1.91-1.09-2.34c-0.45-0.44-1.09-0.66-1.92-0.66h-51.75v-1.5c1-0.31,1.7-0.72,2.09-1.22
		c0.39-0.5,0.58-1.23,0.58-2.2V79.56c0-0.97-0.19-1.7-0.58-2.2c-0.39-0.5-1.09-0.9-2.09-1.22v-1.5h50.75c0.83,0,1.47-0.22,1.92-0.67
		c0.45-0.44,0.81-1.22,1.09-2.33h1.34v16.53h-1.34c-0.28-1.11-0.64-1.89-1.09-2.33c-0.45-0.44-1.09-0.67-1.92-0.67H174v15.17h23.12
		c0.83,0,1.47-0.22,1.92-0.65c0.45-0.44,0.81-1.22,1.09-2.34h1.34v16.16h-1.34c-0.28-1.09-0.64-1.86-1.09-2.32s-1.09-0.68-1.92-0.68
		H174z"/>
	<path class="st1" d="M274.51,115.58h-14.07c-0.86,0-1.51,0.22-1.94,0.66c-0.43,0.44-0.79,1.22-1.06,2.34h-1.34v-14.89h1.34
		c0.28,1.16,0.63,1.94,1.06,2.37c0.43,0.42,1.08,0.63,1.94,0.63h27.01v1.5c-0.99,0.31-1.68,0.72-2.08,1.22
		c-0.4,0.5-0.6,1.23-0.6,2.2v13.11c0,0.97,0.19,1.7,0.57,2.2c0.38,0.5,1.08,0.91,2.1,1.22v1.17c-10.82,6.93-21.3,10.4-31.45,10.4
		c-9.2,0-16.71-2.45-22.52-7.35c-7.31-6.18-10.97-14.77-10.97-25.76c0-10.24,3.26-18.39,9.77-24.45c6.18-5.74,14.39-8.62,24.63-8.62
		c3.26,0,6.32,0.34,9.2,1.01c2.88,0.67,6.16,1.8,9.83,3.39c1.89,0.84,3.24,1.27,4.05,1.27c0.58,0,1.27-0.36,2.05-1.08l1.17,0.7
		l-6.7,15.31l-1.21-0.7c-0.03-1.02-0.15-1.76-0.38-2.21c-0.22-0.45-0.72-1-1.5-1.66c-1.7-1.43-4.19-2.65-7.47-3.66
		c-3.28-1.01-6.38-1.51-9.3-1.51c-5.95,0-10.89,1.87-14.81,5.61c-4.42,4.24-6.63,9.84-6.63,16.79c0,6.74,2.16,12.18,6.47,16.33
		c3.95,3.81,9.15,5.71,15.61,5.71c3.14,0,6.25-0.41,9.31-1.22c3.06-0.81,5.7-1.92,7.93-3.33V115.58z"/>
	<path class="st1" d="M312.28,110.52v17.52h36.65c0.83,0,1.47-0.22,1.92-0.66s0.81-1.22,1.09-2.34h1.34v16.53h-1.34
		c-0.28-1.12-0.64-1.91-1.09-2.34c-0.45-0.44-1.09-0.66-1.92-0.66h-51.75v-1.5c1-0.31,1.7-0.72,2.09-1.22
		c0.39-0.5,0.58-1.23,0.58-2.2V79.56c0-0.97-0.19-1.7-0.58-2.2c-0.39-0.5-1.09-0.9-2.09-1.22v-1.5h50.75c0.83,0,1.47-0.22,1.92-0.67
		c0.45-0.44,0.81-1.22,1.09-2.33h1.34v16.53h-1.34c-0.28-1.11-0.64-1.89-1.09-2.33c-0.45-0.44-1.09-0.67-1.92-0.67h-35.64v15.17
		h23.12c0.83,0,1.47-0.22,1.92-0.65c0.45-0.44,0.81-1.22,1.09-2.34h1.34v16.16h-1.34c-0.28-1.09-0.64-1.86-1.09-2.32
		s-1.09-0.68-1.92-0.68H312.28z"/>
	<path class="st1" d="M406.8,112.49v21.21c0,0.94,0.2,1.66,0.6,2.18c0.4,0.52,1.09,0.91,2.07,1.19v1.5h-17.78v-1.5
		c1-0.31,1.7-0.72,2.09-1.22c0.39-0.5,0.58-1.22,0.58-2.15V79.56c0-0.97-0.19-1.7-0.58-2.2c-0.39-0.5-1.09-0.9-2.09-1.22v-1.5h35.64
		c4.34,0,7.78,0.28,10.33,0.84c2.55,0.56,4.76,1.55,6.66,2.95c2.2,1.62,3.84,3.82,4.92,6.6c1.03,2.69,1.54,5.56,1.54,8.62
		c0,10.43-5.16,16.53-15.48,18.31l11.06,17.66c1.95,3.09,3.37,5.08,4.28,5.97c0.9,0.89,2.01,1.38,3.32,1.47v1.5h-20.58v-1.5
		c1.42-0.25,2.12-0.81,2.12-1.69c0-0.56-0.65-1.92-1.96-4.07l-11.54-18.83H406.8z M406.8,101.95H426c2.84,0,4.84-0.09,6.01-0.28
		c1.17-0.19,2.24-0.58,3.21-1.17c2.11-1.28,3.17-3.59,3.17-6.93c0-3.34-1.06-5.65-3.17-6.93c-1-0.62-2.07-1.02-3.19-1.19
		c-1.13-0.17-3.14-0.26-6.03-0.26h-19.2V101.95z"/>
	<path class="st1" d="M491.05,73.52c9.94,0,17.82,3.01,23.64,9.04c6.15,6.31,9.23,14.45,9.23,24.44c0,6.12-1.48,11.83-4.43,17.14
		c-5.76,10.37-15.22,15.55-28.36,15.55c-9.86,0-17.69-3.01-23.51-9.04c-3.12-3.22-5.49-7.07-7.1-11.57
		c-1.42-3.96-2.13-8.13-2.13-12.5c0-6.4,1.46-12.25,4.38-17.56C468.37,78.88,477.8,73.71,491.05,73.52z M491.09,84.39
		c-5.43,0-9.96,1.81-13.58,5.43c-4.29,4.27-6.43,9.87-6.43,16.79c0,6.92,2.14,12.52,6.43,16.8c3.62,3.62,8.18,5.43,13.66,5.43
		c5.49,0,10.03-1.81,13.62-5.43c2.14-2.15,3.79-4.79,4.93-7.91c1-2.77,1.5-5.64,1.5-8.61c0-7.23-2.14-12.93-6.43-17.07
		C501.15,86.26,496.58,84.45,491.09,84.39z"/>
	<path class="st1" d="M546.71,104.29v16.16h-1.34c-0.28-1.12-0.64-1.9-1.09-2.34c-0.45-0.44-1.1-0.66-1.96-0.66h-10.27
		c-0.83,0-1.48,0.23-1.94,0.68c-0.46,0.45-0.81,1.23-1.06,2.32h-1.34v-16.16h1.34c0.26,1.11,0.62,1.88,1.09,2.33
		c0.47,0.45,1.13,0.67,1.99,0.67h10.54c0.89,0,1.56-0.22,2.01-0.65c0.46-0.43,0.79-1.21,1-2.35H546.71z"/>
	<path class="st1" d="M566.95,112.49v21.21c0,0.94,0.2,1.66,0.6,2.18c0.4,0.52,1.09,0.91,2.07,1.19v1.5h-17.78v-1.5
		c1-0.31,1.7-0.72,2.09-1.22c0.39-0.5,0.58-1.22,0.58-2.15V79.56c0-0.97-0.19-1.7-0.58-2.2c-0.39-0.5-1.09-0.9-2.09-1.22v-1.5h35.64
		c4.34,0,7.78,0.28,10.33,0.84c2.55,0.56,4.76,1.55,6.66,2.95c2.2,1.62,3.84,3.82,4.92,6.6c1.03,2.69,1.54,5.56,1.54,8.62
		c0,10.43-5.16,16.53-15.48,18.31l11.06,17.66c1.95,3.09,3.37,5.08,4.28,5.97c0.9,0.89,2.01,1.38,3.32,1.47v1.5h-20.58v-1.5
		c1.42-0.25,2.12-0.81,2.12-1.69c0-0.56-0.65-1.92-1.96-4.07l-11.54-18.83H566.95z M566.95,101.95h19.2c2.84,0,4.84-0.09,6.01-0.28
		s2.24-0.58,3.21-1.17c2.11-1.28,3.17-3.59,3.17-6.93c0-3.34-1.06-5.65-3.17-6.93c-1-0.62-2.07-1.02-3.19-1.19
		c-1.13-0.17-3.14-0.26-6.03-0.26h-19.2V101.95z"/>
	<path class="st1" d="M651.2,73.52c9.94,0,17.82,3.01,23.64,9.04c6.15,6.31,9.23,14.45,9.23,24.44c0,6.12-1.48,11.83-4.43,17.14
		c-5.76,10.37-15.22,15.55-28.36,15.55c-9.86,0-17.69-3.01-23.51-9.04c-3.12-3.22-5.49-7.07-7.1-11.57
		c-1.42-3.96-2.13-8.13-2.13-12.5c0-6.4,1.46-12.25,4.38-17.56C628.52,78.88,637.95,73.71,651.2,73.52z M651.24,84.39
		c-5.43,0-9.96,1.81-13.58,5.43c-4.29,4.27-6.43,9.87-6.43,16.79c0,6.92,2.14,12.52,6.43,16.8c3.62,3.62,8.18,5.43,13.66,5.43
		c5.49,0,10.03-1.81,13.62-5.43c2.14-2.15,3.79-4.79,4.93-7.91c1-2.77,1.5-5.64,1.5-8.61c0-7.23-2.14-12.93-6.43-17.07
		C661.3,86.26,656.73,84.45,651.24,84.39z"/>
</g>
</svg>
