<?xml version="1.0" encoding="utf-8"?>
<!-- Generator: Adobe Illustrator 23.0.3, SVG Export Plug-In . SVG Version: 6.00 Build 0)  -->
<svg version="1.1" id="Layer_1" xmlns="http://www.w3.org/2000/svg" xmlns:xlink="http://www.w3.org/1999/xlink" x="0px" y="0px"
	 viewBox="0 0 279.05 382.43" style="enable-background:new 0 0 279.05 382.43;" xml:space="preserve">
<style type="text/css">
	.st0{fill:#272361;stroke:#FFFFFF;stroke-width:3;stroke-miterlimit:10;}
	.st1{fill:#FFFFFF;}
</style>
<path class="st0" d="M46.76,8.78c11.73,10.1,144.14,72.71,119.61,175.07c-8,33.4-77.01,115.53-86.92,132.72
	C59,352.02,124.11,182.78,46.76,8.78"/>
<path class="st0" d="M51.43,53.56c20.93,10.11,261.25,76.8,207.89,169.61c-17.41,30.28-146.76,103.07-171.24,116.6
	S264.75,224.91,51.43,53.56z"/>
<g>
	<path class="st1" d="M17.76,359.66v8.72h18.25c0.42,0,0.73-0.11,0.96-0.33c0.22-0.22,0.4-0.61,0.54-1.17h0.67v8.23H37.5
		c-0.14-0.56-0.32-0.95-0.54-1.17c-0.22-0.22-0.54-0.33-0.96-0.33H10.23v-0.75c0.5-0.15,0.84-0.36,1.04-0.61
		c0.19-0.25,0.29-0.61,0.29-1.1v-26.94c0-0.48-0.1-0.85-0.29-1.1c-0.19-0.25-0.54-0.45-1.04-0.61v-0.75h25.27
		c0.42,0,0.73-0.11,0.96-0.33c0.22-0.22,0.4-0.61,0.54-1.16h0.67v8.23H37c-0.14-0.55-0.32-0.94-0.54-1.16
		c-0.22-0.22-0.54-0.33-0.96-0.33H17.76v7.56h11.52c0.42,0,0.73-0.11,0.96-0.33c0.22-0.22,0.4-0.61,0.54-1.17h0.67v8.05h-0.67
		c-0.14-0.54-0.32-0.93-0.54-1.15s-0.54-0.34-0.96-0.34H17.76z"/>
	<path class="st1" d="M67.81,362.18h-7c-0.43,0-0.75,0.11-0.97,0.33c-0.22,0.22-0.39,0.61-0.53,1.17h-0.67v-7.42h0.67
		c0.14,0.58,0.32,0.97,0.53,1.18c0.21,0.21,0.54,0.31,0.97,0.31h13.45v0.75c-0.49,0.16-0.84,0.36-1.03,0.61s-0.3,0.61-0.3,1.1v6.53
		c0,0.48,0.1,0.85,0.29,1.1c0.19,0.25,0.54,0.45,1.04,0.61v0.58c-5.39,3.45-10.61,5.18-15.66,5.18c-4.58,0-8.32-1.22-11.22-3.66
		c-3.64-3.08-5.46-7.35-5.46-12.83c0-5.1,1.62-9.16,4.86-12.17c3.08-2.86,7.16-4.29,12.26-4.29c1.62,0,3.15,0.17,4.58,0.5
		c1.43,0.33,3.07,0.9,4.89,1.69c0.94,0.42,1.61,0.63,2.02,0.63c0.29,0,0.63-0.18,1.02-0.54l0.58,0.35l-3.34,7.63l-0.6-0.35
		c-0.01-0.51-0.08-0.88-0.19-1.1c-0.11-0.22-0.36-0.5-0.75-0.82c-0.85-0.71-2.08-1.32-3.72-1.82c-1.63-0.5-3.18-0.75-4.63-0.75
		c-2.96,0-5.42,0.93-7.38,2.8c-2.2,2.11-3.3,4.9-3.3,8.36c0,3.35,1.07,6.07,3.22,8.13c1.97,1.9,4.56,2.84,7.77,2.84
		c1.57,0,3.11-0.2,4.64-0.61c1.52-0.4,2.84-0.96,3.95-1.66V362.18z"/>
	<path class="st1" d="M86.62,359.66v8.72h18.25c0.42,0,0.73-0.11,0.96-0.33c0.22-0.22,0.4-0.61,0.54-1.17h0.67v8.23h-0.67
		c-0.14-0.56-0.32-0.95-0.54-1.17c-0.22-0.22-0.54-0.33-0.96-0.33H79.09v-0.75c0.5-0.15,0.84-0.36,1.04-0.61
		c0.19-0.25,0.29-0.61,0.29-1.1v-26.94c0-0.48-0.1-0.85-0.29-1.1c-0.19-0.25-0.54-0.45-1.04-0.61v-0.75h25.27
		c0.42,0,0.73-0.11,0.96-0.33c0.22-0.22,0.4-0.61,0.54-1.16h0.67v8.23h-0.67c-0.14-0.55-0.32-0.94-0.54-1.16
		c-0.22-0.22-0.54-0.33-0.96-0.33H86.62v7.56h11.52c0.42,0,0.73-0.11,0.96-0.33c0.22-0.22,0.4-0.61,0.54-1.17h0.67v8.05h-0.67
		c-0.14-0.54-0.32-0.93-0.54-1.15c-0.22-0.23-0.54-0.34-0.96-0.34H86.62z"/>
	<path class="st1" d="M133.69,360.64v10.56c0,0.47,0.1,0.83,0.3,1.08c0.2,0.26,0.54,0.46,1.03,0.59v0.75h-8.85v-0.75
		c0.5-0.15,0.84-0.36,1.04-0.61c0.19-0.25,0.29-0.61,0.29-1.07v-26.96c0-0.48-0.1-0.85-0.29-1.1c-0.19-0.25-0.54-0.45-1.04-0.61
		v-0.75h17.75c2.16,0,3.88,0.14,5.14,0.42c1.27,0.28,2.37,0.77,3.32,1.47c1.09,0.81,1.91,1.9,2.45,3.29
		c0.51,1.34,0.77,2.77,0.77,4.29c0,5.19-2.57,8.23-7.71,9.12l5.51,8.79c0.97,1.54,1.68,2.53,2.13,2.97c0.45,0.44,1,0.69,1.65,0.73
		v0.75h-10.25v-0.75c0.7-0.12,1.06-0.4,1.06-0.84c0-0.28-0.32-0.96-0.97-2.03l-5.75-9.38H133.69z M133.69,355.39h9.56
		c1.41,0,2.41-0.05,2.99-0.14c0.58-0.09,1.12-0.29,1.6-0.58c1.05-0.64,1.58-1.79,1.58-3.45c0-1.66-0.53-2.81-1.58-3.45
		c-0.5-0.31-1.03-0.51-1.59-0.59c-0.56-0.09-1.56-0.13-3-0.13h-9.56V355.39z"/>
	<path class="st1" d="M175.65,341.24c4.95,0,8.87,1.5,11.77,4.5c3.06,3.14,4.6,7.2,4.6,12.17c0,3.05-0.73,5.89-2.2,8.54
		c-2.87,5.16-7.58,7.74-14.12,7.74c-4.91,0-8.81-1.5-11.71-4.5c-1.55-1.6-2.73-3.52-3.54-5.76c-0.71-1.97-1.06-4.05-1.06-6.23
		c0-3.19,0.73-6.1,2.18-8.75C164.35,343.9,169.04,341.33,175.65,341.24z M175.67,346.65c-2.7,0-4.96,0.9-6.76,2.7
		c-2.14,2.13-3.2,4.92-3.2,8.36c0,3.45,1.07,6.24,3.2,8.36c1.8,1.8,4.07,2.7,6.8,2.7c2.73,0,4.99-0.9,6.78-2.7
		c1.07-1.07,1.89-2.38,2.45-3.94c0.5-1.38,0.75-2.81,0.75-4.29c0-3.6-1.07-6.44-3.2-8.5C180.67,347.58,178.4,346.68,175.67,346.65z"
		/>
	<path class="st1" d="M203.36,356.56v8.05h-0.67c-0.14-0.56-0.32-0.95-0.54-1.17c-0.22-0.22-0.55-0.33-0.98-0.33h-5.11
		c-0.42,0-0.74,0.11-0.97,0.34c-0.23,0.23-0.41,0.61-0.53,1.15h-0.67v-8.05h0.67c0.13,0.55,0.31,0.94,0.54,1.16
		c0.23,0.22,0.57,0.33,0.99,0.33h5.25c0.44,0,0.78-0.11,1-0.32c0.23-0.21,0.39-0.6,0.5-1.17H203.36z"/>
	<path class="st1" d="M213.44,360.64v10.56c0,0.47,0.1,0.83,0.3,1.08c0.2,0.26,0.54,0.46,1.03,0.59v0.75h-8.85v-0.75
		c0.5-0.15,0.84-0.36,1.04-0.61c0.19-0.25,0.29-0.61,0.29-1.07v-26.96c0-0.48-0.1-0.85-0.29-1.1c-0.19-0.25-0.54-0.45-1.04-0.61
		v-0.75h17.75c2.16,0,3.88,0.14,5.14,0.42c1.27,0.28,2.37,0.77,3.32,1.47c1.09,0.81,1.91,1.9,2.45,3.29
		c0.51,1.34,0.77,2.77,0.77,4.29c0,5.19-2.57,8.23-7.71,9.12l5.51,8.79c0.97,1.54,1.68,2.53,2.13,2.97c0.45,0.44,1,0.69,1.65,0.73
		v0.75h-10.25v-0.75c0.7-0.12,1.06-0.4,1.06-0.84c0-0.28-0.32-0.96-0.97-2.03l-5.75-9.38H213.44z M213.44,355.39H223
		c1.41,0,2.41-0.05,2.99-0.14c0.58-0.09,1.12-0.29,1.6-0.58c1.05-0.64,1.58-1.79,1.58-3.45c0-1.66-0.53-2.81-1.58-3.45
		c-0.5-0.31-1.03-0.51-1.59-0.59c-0.56-0.09-1.56-0.13-3-0.13h-9.56V355.39z"/>
	<path class="st1" d="M255.4,341.24c4.95,0,8.87,1.5,11.77,4.5c3.06,3.14,4.6,7.2,4.6,12.17c0,3.05-0.73,5.89-2.2,8.54
		c-2.87,5.16-7.58,7.74-14.12,7.74c-4.91,0-8.81-1.5-11.71-4.5c-1.55-1.6-2.73-3.52-3.54-5.76c-0.71-1.97-1.06-4.05-1.06-6.23
		c0-3.19,0.73-6.1,2.18-8.75C244.1,343.9,248.8,341.33,255.4,341.24z M255.42,346.65c-2.7,0-4.96,0.9-6.76,2.7
		c-2.14,2.13-3.2,4.92-3.2,8.36c0,3.45,1.07,6.24,3.2,8.36c1.8,1.8,4.07,2.7,6.8,2.7c2.73,0,4.99-0.9,6.78-2.7
		c1.07-1.07,1.89-2.38,2.45-3.94c0.5-1.38,0.75-2.81,0.75-4.29c0-3.6-1.07-6.44-3.2-8.5C260.43,347.58,258.15,346.68,255.42,346.65z
		"/>
</g>
</svg>
